<svg xmlns="http://www.w3.org/2000/svg" version="1.1" xmlns:xlink="http://www.w3.org/1999/xlink" xmlns:svgjs="http://svgjs.dev/svgjs" width="1000" height="1000"><style>
    #light-icon {
      display: inline;
    }
    #dark-icon {
      display: none;
    }

    @media (prefers-color-scheme: dark) {
      #light-icon {
        display: none;
      }
      #dark-icon {
        display: inline;
      }
    }
  </style><g id="light-icon"><svg xmlns="http://www.w3.org/2000/svg" version="1.1" xmlns:xlink="http://www.w3.org/1999/xlink" xmlns:svgjs="http://svgjs.dev/svgjs" width="1000" height="1000"><g><g transform="matrix(4.084466772862802,0,0,4.084466772862802,5.684341886080802e-14,61.471224931585255)"><svg xmlns="http://www.w3.org/2000/svg" version="1.1" xmlns:xlink="http://www.w3.org/1999/xlink" xmlns:svgjs="http://svgjs.dev/svgjs" width="244.83" height="214.73"><svg id="Layer_2" data-name="Layer 2" xmlns="http://www.w3.org/2000/svg" viewBox="0 0 244.83 214.73">
  <defs>
    <style>
      .cls-1 {
        fill: #fff;
      }

      .cls-1, .cls-2, .cls-3 {
        stroke: #92c494;
        stroke-miterlimit: 10;
      }

      .cls-1, .cls-3 {
        stroke-width: 2px;
      }

      .cls-2 {
        fill: #92c494;
      }

      .cls-3 {
        fill: none;
      }
    </style>
  </defs>
  <g id="Layer_3" data-name="Layer 3">
    <g>
      <g>
        <path class="cls-1" d="M174.61,89.32c-1.32,8.1-8.33,14.29-16.8,14.29s-15.55-6.25-16.82-14.41h-69.19c.24,7.72,1.5,15.35,3.78,22.74l60.18,25.55c9.82,4.17,14.42,15.55,10.25,25.37-1.36,3.21-3.51,5.89-6.16,7.89,5.87,1.25,11.88,1.88,17.96,1.88,46.53,0,84.52-37.12,85.99-83.3h-69.18Z"></path>
        <path class="cls-2" d="M140.98,83.92c1.27-8.16,8.31-14.41,16.82-14.41s15.48,6.19,16.8,14.29h69.18C242.33,37.62,204.33.5,157.81.5s-84.59,37.18-85.99,83.42h69.17ZM216.62,61.61c4.37,0,7.9,3.54,7.9,7.9s-3.54,7.9-7.9,7.9-15.96-1.21-15.96-5.57,11.6-10.24,15.96-10.24ZM189.61,32.65c4.03-1.67,8.66.24,10.33,4.28,1.67,4.03-.24,8.66-4.28,10.33-4.03,1.67-15.21,4.99-16.88.96s6.8-13.89,10.83-15.56ZM157.81,16.24c4.37,0,7.9,3.54,7.9,7.9s-3.54,7.9-7.9,7.9-7.9-3.54-7.9-7.9,3.54-7.9,7.9-7.9ZM114.93,36.93c1.67-4.03,6.29-5.95,10.33-4.28,4.03,1.67,12.5,11.53,10.83,15.56s-12.84.71-16.88-.96c-4.03-1.67-5.95-6.29-4.28-10.33ZM99,61.61c4.37,0,15.96,5.87,15.96,10.24s-11.6,5.57-15.96,5.57-7.9-3.54-7.9-7.9,3.54-7.9,7.9-7.9Z"></path>
      </g>
      <circle class="cls-3" cx="157.8" cy="86.52" r="10.66"></circle>
    </g>
    <path class="cls-2" d="M73.48,116.56c15.49,5.09,60.03,25.48,60.03,25.48,7.53,3.2,11.04,11.89,7.85,19.42l-.68,1.6c-3.2,7.53-11.89,11.04-19.42,7.85l-47.48-20.16c-.42,3.84,2.91,6.52,4.94,7.88,7.94,5.34,24.06,13.75,34.3,17.02,8.53,2.73,22.35,6.84,40.62,4.06,17.14-2.61,67-17.95,67-17.95,7.9-2.12,16.02,2.57,18.14,10.47s-2.57,16.02-10.47,18.14c0,0-65.96,22.38-88.93,23.83-5.15.32-15.45-1.55-20.46-2.8-16.27-4.07-46.5-19.36-62.49-24.44-4.02-1.28-12.37-3.07-16.6-3.13-5.1-.08-15.25,1.77-20.17,3.13-4.88,1.35-19.15,6.57-19.15,6.57v-45.34s11.83-5.55,15.57-7.77c4.74-2.8,18.13-12.51,18.13-12.51,0,0,11.19-9.27,15.57-11.23,3.58-1.6,11.7-2.7,15.57-2.04,2.06.35,6.15,1.28,8.13,1.93Z"></path>
  </g>
</svg></svg></g></g></svg></g><g id="dark-icon"><svg xmlns="http://www.w3.org/2000/svg" version="1.1" xmlns:xlink="http://www.w3.org/1999/xlink" xmlns:svgjs="http://svgjs.dev/svgjs" width="1000" height="1000"><g clip-path="url(#SvgjsClipPath1075)"><rect width="1000" height="1000" fill="#ffffff"></rect><g transform="matrix(3.267573418290242,0,0,3.267573418290242,100,149.17697994526816)"><svg xmlns="http://www.w3.org/2000/svg" version="1.1" xmlns:xlink="http://www.w3.org/1999/xlink" xmlns:svgjs="http://svgjs.dev/svgjs" width="244.83" height="214.73"><svg id="Layer_2" data-name="Layer 2" xmlns="http://www.w3.org/2000/svg" viewBox="0 0 244.83 214.73">
  <defs>
    <style>
      .cls-1 {
        fill: #fff;
      }

      .cls-1, .cls-2, .cls-3 {
        stroke: #92c494;
        stroke-miterlimit: 10;
      }

      .cls-1, .cls-3 {
        stroke-width: 2px;
      }

      .cls-2 {
        fill: #92c494;
      }

      .cls-3 {
        fill: none;
      }
    </style>
  <clipPath id="SvgjsClipPath1075"><rect width="1000" height="1000" x="0" y="0" rx="500" ry="500"></rect></clipPath></defs>
  <g id="Layer_3" data-name="Layer 3">
    <g>
      <g>
        <path class="cls-1" d="M174.61,89.32c-1.32,8.1-8.33,14.29-16.8,14.29s-15.55-6.25-16.82-14.41h-69.19c.24,7.72,1.5,15.35,3.78,22.74l60.18,25.55c9.82,4.17,14.42,15.55,10.25,25.37-1.36,3.21-3.51,5.89-6.16,7.89,5.87,1.25,11.88,1.88,17.96,1.88,46.53,0,84.52-37.12,85.99-83.3h-69.18Z"></path>
        <path class="cls-2" d="M140.98,83.92c1.27-8.16,8.31-14.41,16.82-14.41s15.48,6.19,16.8,14.29h69.18C242.33,37.62,204.33.5,157.81.5s-84.59,37.18-85.99,83.42h69.17ZM216.62,61.61c4.37,0,7.9,3.54,7.9,7.9s-3.54,7.9-7.9,7.9-15.96-1.21-15.96-5.57,11.6-10.24,15.96-10.24ZM189.61,32.65c4.03-1.67,8.66.24,10.33,4.28,1.67,4.03-.24,8.66-4.28,10.33-4.03,1.67-15.21,4.99-16.88.96s6.8-13.89,10.83-15.56ZM157.81,16.24c4.37,0,7.9,3.54,7.9,7.9s-3.54,7.9-7.9,7.9-7.9-3.54-7.9-7.9,3.54-7.9,7.9-7.9ZM114.93,36.93c1.67-4.03,6.29-5.95,10.33-4.28,4.03,1.67,12.5,11.53,10.83,15.56s-12.84.71-16.88-.96c-4.03-1.67-5.95-6.29-4.28-10.33ZM99,61.61c4.37,0,15.96,5.87,15.96,10.24s-11.6,5.57-15.96,5.57-7.9-3.54-7.9-7.9,3.54-7.9,7.9-7.9Z"></path>
      </g>
      <circle class="cls-3" cx="157.8" cy="86.52" r="10.66"></circle>
    </g>
    <path class="cls-2" d="M73.48,116.56c15.49,5.09,60.03,25.48,60.03,25.48,7.53,3.2,11.04,11.89,7.85,19.42l-.68,1.6c-3.2,7.53-11.89,11.04-19.42,7.85l-47.48-20.16c-.42,3.84,2.91,6.52,4.94,7.88,7.94,5.34,24.06,13.75,34.3,17.02,8.53,2.73,22.35,6.84,40.62,4.06,17.14-2.61,67-17.95,67-17.95,7.9-2.12,16.02,2.57,18.14,10.47s-2.57,16.02-10.47,18.14c0,0-65.96,22.38-88.93,23.83-5.15.32-15.45-1.55-20.46-2.8-16.27-4.07-46.5-19.36-62.49-24.44-4.02-1.28-12.37-3.07-16.6-3.13-5.1-.08-15.25,1.77-20.17,3.13-4.88,1.35-19.15,6.57-19.15,6.57v-45.34s11.83-5.55,15.57-7.77c4.74-2.8,18.13-12.51,18.13-12.51,0,0,11.19-9.27,15.57-11.23,3.58-1.6,11.7-2.7,15.57-2.04,2.06.35,6.15,1.28,8.13,1.93Z"></path>
  </g>
</svg></svg></g></g></svg></g></svg>