<?xml version="1.0" encoding="UTF-8"?>
<svg id="Layer_2" data-name="Layer 2" xmlns="http://www.w3.org/2000/svg" viewBox="0 0 211.19 70.12">
  <defs>
    <style>
      .cls-1 {
        fill: #fff;
        stroke: #4ca75a;
        stroke-miterlimit: 10;
        stroke-width: .5px;
      }

      .cls-2 {
        fill: #4ca75a;
      }
    </style>
  </defs>
  <g id="Text">
    <g>
      <path class="cls-2" d="M11.84,17.12h-7.71v4.94h6.45c.6,0,1.04.13,1.34.4s.44.63.44,1.07-.15.8-.45,1.07-.74.4-1.33.4h-6.45v6.37c0,.81-.18,1.41-.55,1.8-.36.39-.83.59-1.4.59s-1.05-.2-1.42-.59-.55-.99-.55-1.79v-14.87c0-.56.08-1.02.25-1.38.17-.36.43-.61.78-.78.36-.16.81-.24,1.36-.24h9.23c.62,0,1.09.14,1.39.42.3.28.46.64.46,1.09s-.15.82-.46,1.1c-.3.28-.77.42-1.39.42Z"/>
      <path class="cls-2" d="M23.53,31.73c-.87.68-1.71,1.18-2.52,1.52-.81.34-1.72.51-2.74.51-.92,0-1.73-.18-2.43-.55-.7-.36-1.24-.86-1.61-1.48s-.57-1.3-.57-2.03c0-.98.31-1.82.94-2.52s1.48-1.16,2.57-1.4c.23-.05.8-.17,1.7-.36s1.68-.35,2.33-.51c.65-.15,1.35-.34,2.1-.56-.04-.95-.24-1.65-.57-2.09-.34-.44-1.04-.67-2.1-.67-.91,0-1.6.13-2.06.38-.46.25-.86.64-1.19,1.15-.33.51-.56.85-.7,1.01-.14.16-.43.24-.88.24-.4,0-.75-.13-1.05-.39-.29-.26-.44-.59-.44-1,0-.63.22-1.25.67-1.85s1.15-1.09,2.1-1.48,2.13-.58,3.55-.58c1.58,0,2.83.19,3.73.56.91.37,1.54.96,1.92,1.77.37.81.56,1.88.56,3.22,0,.84,0,1.56,0,2.15,0,.59-.01,1.24-.02,1.96,0,.68.11,1.38.34,2.12.22.73.34,1.21.34,1.42,0,.37-.17.71-.52,1.01-.35.3-.74.45-1.18.45-.37,0-.73-.17-1.09-.52-.36-.35-.74-.85-1.15-1.51ZM23.29,26.52c-.53.19-1.29.4-2.3.61-1.01.22-1.7.37-2.09.47s-.76.3-1.11.59c-.35.29-.53.71-.53,1.23s.21,1.01.62,1.39c.41.38.95.57,1.62.57.71,0,1.37-.16,1.97-.47s1.04-.71,1.33-1.21c.33-.54.49-1.44.49-2.69v-.51Z"/>
      <path class="cls-2" d="M32.5,21.12v.44c.63-.83,1.32-1.45,2.08-1.84.75-.39,1.61-.59,2.59-.59s1.8.21,2.54.62,1.31,1,1.67,1.75c.24.44.39.91.46,1.42s.11,1.16.11,1.95v6.7c0,.72-.17,1.27-.49,1.63-.33.37-.76.55-1.29.55s-.97-.19-1.31-.57-.5-.92-.5-1.62v-6c0-1.19-.17-2.09-.49-2.72-.33-.63-.99-.94-1.97-.94-.64,0-1.23.19-1.75.57-.53.38-.91.91-1.16,1.58-.18.54-.26,1.54-.26,3.01v4.51c0,.73-.17,1.28-.51,1.64-.34.36-.78.55-1.31.55s-.94-.19-1.28-.57-.5-.92-.5-1.62v-10.4c0-.69.15-1.2.45-1.54.3-.34.71-.51,1.23-.51.32,0,.6.07.86.22s.46.37.61.67.23.66.23,1.09Z"/>
      <path class="cls-2" d="M54.16,31.71v-.36c-.48.55-.96,1-1.43,1.35-.47.35-.98.61-1.53.79-.55.18-1.15.27-1.8.27-.86,0-1.66-.18-2.39-.55-.73-.36-1.37-.89-1.91-1.56s-.94-1.47-1.22-2.39c-.28-.91-.42-1.9-.42-2.97,0-2.25.55-4,1.65-5.26s2.54-1.89,4.34-1.89c1.04,0,1.91.18,2.62.53.71.36,1.41.9,2.08,1.64v-5.31c0-.74.15-1.3.44-1.67.29-.38.71-.57,1.26-.57s.96.17,1.26.52.44.86.44,1.54v15.87c0,.69-.16,1.2-.47,1.54s-.73.51-1.23.51-.9-.18-1.22-.53c-.32-.36-.48-.86-.48-1.52ZM47.08,26.42c0,.98.15,1.81.46,2.49.3.69.72,1.2,1.25,1.55s1.1.52,1.73.52,1.21-.17,1.73-.49c.52-.33.94-.83,1.25-1.52.31-.68.47-1.53.47-2.55,0-.96-.16-1.78-.47-2.47-.31-.69-.73-1.22-1.27-1.58-.53-.36-1.11-.55-1.75-.55s-1.25.19-1.77.56c-.52.37-.92.91-1.21,1.61-.29.7-.43,1.51-.43,2.43Z"/>
      <path class="cls-2" d="M73.41,26.45c0,1.07-.17,2.06-.5,2.97s-.82,1.68-1.45,2.33-1.39,1.15-2.27,1.5c-.88.35-1.87.52-2.97.52s-2.07-.18-2.94-.53-1.62-.85-2.26-1.51-1.12-1.43-1.45-2.32c-.33-.89-.49-1.88-.49-2.96s.17-2.09.5-2.99.81-1.68,1.44-2.32,1.38-1.14,2.27-1.48,1.87-.52,2.94-.52,2.08.18,2.97.53,1.65.85,2.28,1.5,1.11,1.42,1.44,2.32c.33.9.49,1.89.49,2.97ZM69.79,26.45c0-1.47-.32-2.61-.97-3.43-.65-.82-1.51-1.23-2.6-1.23-.7,0-1.32.18-1.86.55s-.95.9-1.24,1.61-.44,1.54-.44,2.49.14,1.76.43,2.47c.29.7.69,1.24,1.23,1.61.53.37,1.16.56,1.88.56,1.09,0,1.96-.41,2.6-1.23.65-.82.97-1.96.97-3.41Z"/>
      <path class="cls-2" d="M86.97,26.71v4.79c0,.76-.17,1.32-.51,1.7s-.8.57-1.36.57-.99-.19-1.32-.57c-.34-.38-.51-.94-.51-1.7v-5.73c0-.91-.03-1.61-.09-2.11s-.23-.91-.5-1.23-.7-.48-1.29-.48c-1.18,0-1.95.4-2.33,1.21-.37.81-.56,1.97-.56,3.48v4.86c0,.75-.17,1.31-.51,1.69-.34.38-.78.57-1.34.57s-.99-.19-1.34-.57c-.35-.38-.52-.95-.52-1.69v-10.3c0-.68.16-1.19.47-1.54.31-.35.72-.53,1.23-.53s.9.16,1.23.49c.33.33.49.78.49,1.36v.34c.62-.75,1.29-1.3,2-1.65s1.5-.53,2.37-.53,1.68.18,2.33.54,1.19.91,1.61,1.63c.61-.74,1.26-1.29,1.95-1.64.69-.36,1.46-.53,2.31-.53.98,0,1.83.19,2.54.58s1.24.94,1.6,1.66c.31.65.46,1.67.46,3.07v7.03c0,.76-.17,1.32-.51,1.7s-.8.57-1.36.57-.99-.19-1.34-.57c-.35-.38-.52-.95-.52-1.69v-6.05c0-.77-.03-1.39-.1-1.86-.07-.47-.24-.86-.53-1.17s-.73-.47-1.32-.47c-.47,0-.93.14-1.35.42-.43.28-.76.66-1,1.13-.26.61-.4,1.68-.4,3.22Z"/>
    </g>
    <g>
      <path class="cls-2" d="M10,59.64h-4.78v7.29c0,1.04-.25,1.83-.74,2.37s-1.11.81-1.86.81-1.42-.27-1.9-.8-.72-1.32-.72-2.35v-19.86c0-1.15.26-1.97.79-2.46s1.37-.74,2.51-.74h6.7c1.98,0,3.5.15,4.57.46,1.05.29,1.97.78,2.73,1.46s1.35,1.51,1.75,2.5.6,2.09.6,3.32c0,2.62-.81,4.61-2.43,5.97s-4.03,2.03-7.22,2.03ZM8.74,47.83h-3.52v7.88h3.52c1.23,0,2.26-.13,3.08-.39s1.46-.68,1.89-1.27.65-1.35.65-2.3c0-1.14-.33-2.06-1-2.78-.75-.76-2.29-1.14-4.62-1.14Z"/>
      <path class="cls-2" d="M29.3,51.33c1.87,0,3.48.38,4.82,1.14s2.36,1.84,3.05,3.24c.69,1.4,1.03,3.04,1.03,4.93,0,1.39-.19,2.66-.57,3.8s-.94,2.13-1.7,2.97c-.75.84-1.68,1.48-2.78,1.92-1.1.44-2.36.66-3.78.66s-2.67-.23-3.79-.68c-1.12-.46-2.05-1.1-2.79-1.93s-1.31-1.83-1.69-2.99c-.38-1.16-.57-2.42-.57-3.78s.2-2.66.6-3.81c.4-1.16.97-2.14,1.73-2.95.75-.81,1.67-1.43,2.76-1.86s2.31-.65,3.69-.65ZM34.5,60.61c0-1.32-.21-2.47-.64-3.43-.43-.97-1.04-1.7-1.83-2.2-.79-.5-1.7-.74-2.73-.74-.73,0-1.4.14-2.02.41-.62.27-1.15.67-1.6,1.2-.45.53-.8,1.2-1.06,2.01-.26.82-.39,1.73-.39,2.75s.13,1.95.39,2.78c.26.83.62,1.52,1.1,2.06s1.01.95,1.62,1.22c.61.27,1.28.41,2.01.41.94,0,1.79-.23,2.58-.7.78-.47,1.41-1.19,1.87-2.17.46-.98.69-2.18.69-3.6Z"/>
      <path class="cls-2" d="M44.5,53.55v6.32l7.17-7.48c.34-.36.64-.63.88-.8s.56-.26.97-.26c.52,0,.95.15,1.27.46.32.31.49.68.49,1.13,0,.53-.27,1.06-.82,1.59l-4.44,4.21,5.12,7.33c.36.51.63.95.81,1.33.18.38.27.75.27,1.11,0,.4-.16.75-.47,1.05s-.74.44-1.29.44c-.51,0-.92-.11-1.24-.33-.32-.22-.59-.51-.81-.87-.22-.36-.42-.69-.59-.98l-4.32-6.64-2.99,2.87v3.73c0,.75-.17,1.31-.52,1.68-.34.36-.79.55-1.33.55-.31,0-.61-.08-.9-.25s-.51-.39-.66-.66c-.11-.23-.18-.5-.21-.8-.02-.3-.04-.74-.04-1.32v-13.41c0-.74.16-1.29.49-1.66.32-.37.76-.55,1.32-.55s.99.18,1.33.55c.34.37.51.92.51,1.67Z"/>
      <path class="cls-2" d="M70.86,54.46h-8.23v4.43h7.58c.56,0,.97.12,1.25.38.27.25.41.58.41.99s-.14.74-.41,1c-.27.26-.69.39-1.25.39h-7.58v5.13h8.52c.57,0,1.01.13,1.3.4.29.27.44.62.44,1.06s-.15.77-.44,1.04c-.29.27-.72.4-1.3.4h-9.93c-.8,0-1.37-.18-1.72-.53-.35-.35-.52-.92-.52-1.71v-13.56c0-.52.08-.95.23-1.29.16-.33.4-.57.73-.73.33-.15.76-.23,1.27-.23h9.65c.58,0,1.02.13,1.3.39.28.26.42.6.42,1.02s-.14.77-.42,1.03c-.28.26-.72.39-1.3.39Z"/>
      <path class="cls-2" d="M86.12,59.64h-4.78v7.29c0,1.04-.25,1.83-.74,2.37s-1.11.81-1.86.81-1.42-.27-1.9-.8-.72-1.32-.72-2.35v-19.86c0-1.15.26-1.97.79-2.46s1.37-.74,2.51-.74h6.7c1.98,0,3.5.15,4.57.46,1.05.29,1.97.78,2.73,1.46s1.35,1.51,1.75,2.5.6,2.09.6,3.32c0,2.62-.81,4.61-2.43,5.97s-4.03,2.03-7.22,2.03ZM84.86,47.83h-3.52v7.88h3.52c1.23,0,2.26-.13,3.08-.39s1.46-.68,1.89-1.27.65-1.35.65-2.3c0-1.14-.33-2.06-1-2.78-.75-.76-2.29-1.14-4.62-1.14Z"/>
      <path class="cls-2" d="M107.23,67.64l-.86-2.26h-7.33l-.86,2.31c-.34.9-.62,1.51-.86,1.83-.24.32-.63.47-1.17.47-.46,0-.87-.17-1.22-.5-.35-.34-.53-.72-.53-1.14,0-.25.04-.5.12-.76s.22-.63.41-1.1l4.61-11.71c.13-.34.29-.74.47-1.21.18-.47.38-.86.59-1.17.21-.31.48-.56.82-.76.34-.19.76-.29,1.26-.29s.93.1,1.27.29.62.44.82.74c.21.3.39.63.53.98s.33.81.55,1.4l4.71,11.64c.37.89.55,1.53.55,1.93s-.17.8-.52,1.15-.77.52-1.26.52c-.29,0-.53-.05-.74-.15s-.38-.24-.52-.42c-.14-.18-.29-.45-.45-.81-.16-.36-.3-.69-.41-.97ZM99.99,62.63h5.39l-2.72-7.44-2.67,7.44Z"/>
      <path class="cls-2" d="M118.22,61.97h-1.28v5.8c0,.76-.17,1.32-.5,1.69-.34.36-.78.54-1.32.54-.58,0-1.03-.19-1.35-.57-.32-.38-.48-.93-.48-1.66v-13.88c0-.79.18-1.36.53-1.71.35-.35.92-.53,1.71-.53h5.94c.82,0,1.52.03,2.1.1.58.07,1.11.21,1.57.42.57.24,1.07.58,1.5,1.02.43.44.76.96.99,1.54s.34,1.21.34,1.86c0,1.35-.38,2.42-1.14,3.22s-1.91,1.37-3.45,1.71c.65.34,1.27.85,1.86,1.53.59.67,1.12,1.39,1.58,2.15s.82,1.44,1.08,2.05c.26.61.39,1.03.39,1.26s-.08.47-.23.71-.36.42-.62.55c-.26.14-.57.2-.91.2-.41,0-.75-.1-1.03-.29-.28-.19-.52-.44-.72-.73-.2-.29-.47-.73-.82-1.3l-1.46-2.44c-.52-.89-.99-1.58-1.41-2.04-.41-.47-.83-.79-1.26-.96-.43-.17-.96-.26-1.61-.26ZM120.31,54.39h-3.37v4.96h3.27c.88,0,1.62-.08,2.21-.23s1.06-.41,1.37-.78c.32-.36.47-.87.47-1.51,0-.5-.13-.94-.38-1.32s-.61-.67-1.06-.85c-.43-.18-1.27-.27-2.52-.27Z"/>
      <path class="cls-2" d="M141.39,54.66h-3.99v13.1c0,.75-.17,1.31-.5,1.68-.34.36-.77.55-1.3.55s-.98-.18-1.32-.55-.51-.93-.51-1.67v-13.1h-3.99c-.62,0-1.09-.14-1.39-.41-.3-.27-.46-.64-.46-1.09s.16-.84.47-1.11c.32-.27.77-.41,1.37-.41h11.62c.63,0,1.1.14,1.41.42s.46.64.46,1.09-.16.81-.47,1.09-.78.41-1.4.41Z"/>
      <path class="cls-2" d="M149.68,53.52l7.03,10.63v-10.73c0-.7.15-1.22.45-1.57s.7-.52,1.21-.52.94.17,1.24.52.46.87.46,1.57v14.19c0,1.58-.66,2.38-1.97,2.38-.33,0-.62-.05-.89-.14-.26-.09-.51-.24-.74-.45-.23-.2-.44-.44-.64-.72-.2-.27-.39-.56-.59-.84l-6.85-10.51v10.57c0,.69-.16,1.21-.48,1.56-.32.35-.73.53-1.23.53s-.93-.18-1.24-.54c-.31-.36-.47-.88-.47-1.56v-13.92c0-.59.07-1.05.2-1.39.16-.37.41-.67.78-.9.36-.23.75-.35,1.17-.35.33,0,.61.05.84.16.23.11.44.25.62.43.18.18.36.41.54.7.18.29.38.59.57.9Z"/>
      <path class="cls-2" d="M175.45,54.46h-8.23v4.43h7.58c.56,0,.97.12,1.25.38.27.25.41.58.41.99s-.14.74-.41,1c-.27.26-.69.39-1.25.39h-7.58v5.13h8.51c.57,0,1.01.13,1.3.4.29.27.44.62.44,1.06s-.15.77-.44,1.04c-.29.27-.72.4-1.3.4h-9.93c-.8,0-1.37-.18-1.72-.53-.35-.35-.52-.92-.52-1.71v-13.56c0-.52.08-.95.23-1.29.16-.33.4-.57.73-.73s.76-.23,1.27-.23h9.65c.58,0,1.01.13,1.3.39.28.26.42.6.42,1.02s-.14.77-.42,1.03-.72.39-1.3.39Z"/>
      <path class="cls-2" d="M184.78,61.97h-1.28v5.8c0,.76-.17,1.32-.5,1.69-.34.36-.77.54-1.32.54-.58,0-1.03-.19-1.35-.57-.32-.38-.48-.93-.48-1.66v-13.88c0-.79.18-1.36.53-1.71.35-.35.92-.53,1.71-.53h5.94c.82,0,1.52.03,2.1.1.58.07,1.11.21,1.58.42.57.24,1.07.58,1.5,1.02.44.44.77.96.99,1.54s.34,1.21.34,1.86c0,1.35-.38,2.42-1.14,3.22s-1.91,1.37-3.45,1.71c.65.34,1.27.85,1.86,1.53.59.67,1.12,1.39,1.58,2.15s.82,1.44,1.08,2.05c.26.61.39,1.03.39,1.26s-.08.47-.23.71c-.15.23-.36.42-.62.55s-.57.2-.91.2c-.41,0-.75-.1-1.03-.29-.28-.19-.52-.44-.72-.73-.2-.29-.47-.73-.82-1.3l-1.46-2.44c-.52-.89-.99-1.58-1.41-2.04-.42-.47-.83-.79-1.26-.96s-.96-.26-1.61-.26ZM186.87,54.39h-3.37v4.96h3.27c.88,0,1.62-.08,2.21-.23.6-.15,1.06-.41,1.37-.78.32-.36.47-.87.47-1.51,0-.5-.13-.94-.38-1.32s-.61-.67-1.06-.85c-.43-.18-1.27-.27-2.52-.27Z"/>
      <path class="cls-2" d="M211.19,64.27c0,1.09-.28,2.07-.84,2.94-.56.87-1.38,1.55-2.47,2.04s-2.37.74-3.85.74c-1.78,0-3.25-.34-4.41-1.01-.82-.48-1.49-1.13-2-1.94s-.77-1.59-.77-2.36c0-.44.15-.82.46-1.14s.7-.47,1.17-.47c.39,0,.71.12.98.37s.49.61.68,1.09c.23.57.48,1.05.74,1.44s.64.7,1.13.95c.48.25,1.12.38,1.91.38,1.08,0,1.96-.25,2.64-.76.68-.5,1.02-1.13,1.02-1.89,0-.6-.18-1.08-.55-1.46-.37-.37-.84-.66-1.42-.85s-1.35-.41-2.32-.63c-1.3-.3-2.38-.66-3.25-1.06-.87-.41-1.57-.96-2.08-1.66-.51-.7-.77-1.57-.77-2.61s.27-1.87.81-2.65c.54-.77,1.32-1.36,2.35-1.78,1.03-.41,2.23-.62,3.62-.62,1.11,0,2.06.14,2.87.41.81.27,1.48.64,2.01,1.1.53.46.92.93,1.17,1.43s.37.99.37,1.46c0,.44-.15.83-.46,1.18s-.69.52-1.15.52c-.42,0-.74-.1-.95-.31-.22-.21-.45-.55-.71-1.03-.33-.68-.72-1.21-1.18-1.59-.46-.38-1.2-.57-2.21-.57-.94,0-1.7.21-2.28.62-.58.41-.87.91-.87,1.49,0,.36.1.67.3.94.2.26.47.49.81.68.34.19.69.34,1.05.44s.94.26,1.75.47c1.02.24,1.94.5,2.76.79s1.53.64,2.1,1.05c.58.41,1.03.93,1.35,1.56.32.63.49,1.4.49,2.31Z"/>
    </g>
  </g>
  <g id="Layer_10" data-name="Layer 10">
    <g>
      <g>
        <path class="cls-1" d="M131.82,15.24c-.23,1.39-1.43,2.45-2.88,2.45s-2.67-1.07-2.89-2.47h-11.87c.04,1.32.26,2.63.65,3.9l10.33,4.38c1.68.72,2.47,2.67,1.76,4.35-.23.55-.6,1.01-1.06,1.35,1.01.21,2.04.32,3.08.32,7.98,0,14.5-6.37,14.75-14.29h-11.87Z"/>
        <path class="cls-2" d="M126.05,14.31c.22-1.4,1.43-2.47,2.89-2.47s2.66,1.06,2.88,2.45h11.87c-.25-7.92-6.77-14.29-14.75-14.29s-14.51,6.38-14.75,14.31h11.87ZM139.03,10.48c.75,0,1.36.61,1.36,1.36s-.61,1.36-1.36,1.36-2.74-.21-2.74-.96,1.99-1.76,2.74-1.76ZM134.4,5.52c.69-.29,1.49.04,1.77.73.29.69-.04,1.49-.73,1.77-.69.29-2.61.86-2.9.16s1.17-2.38,1.86-2.67ZM128.94,2.7c.75,0,1.36.61,1.36,1.36s-.61,1.36-1.36,1.36-1.36-.61-1.36-1.36.61-1.36,1.36-1.36ZM121.58,6.25c.29-.69,1.08-1.02,1.77-.73.69.29,2.14,1.98,1.86,2.67s-2.2.12-2.9-.16c-.69-.29-1.02-1.08-.73-1.77ZM118.85,10.48c.75,0,2.74,1.01,2.74,1.76s-1.99.96-2.74.96-1.36-.61-1.36-1.36.61-1.36,1.36-1.36Z"/>
      </g>
      <path class="cls-2" d="M128.94,16.76c-1.1,0-2-.9-2-2s.9-2,2-2,2,.9,2,2-.9,2-2,2ZM128.94,13.1c-.91,0-1.66.74-1.66,1.66s.74,1.66,1.66,1.66,1.66-.74,1.66-1.66-.74-1.66-1.66-1.66Z"/>
    </g>
    <path class="cls-2" d="M114.47,19.91c2.66.87,10.3,4.37,10.3,4.37,1.29.55,1.89,2.04,1.35,3.33l-.12.27c-.55,1.29-2.04,1.89-3.33,1.35l-8.15-3.46c-.07.66.5,1.12.85,1.35,1.36.92,4.13,2.36,5.88,2.92,1.46.47,3.84,1.17,6.97.7,2.94-.45,11.5-3.08,11.5-3.08,1.36-.36,2.75.44,3.11,1.8s-.44,2.75-1.8,3.11c0,0-11.32,3.84-15.26,4.09-.88.06-2.65-.27-3.51-.48-2.79-.7-7.98-3.32-10.72-4.19-.69-.22-2.12-.53-2.85-.54-.88-.01-2.62.3-3.46.54-.84.23-3.29,1.13-3.29,1.13v-7.78s2.03-.95,2.67-1.33c.81-.48,3.11-2.15,3.11-2.15,0,0,1.92-1.59,2.67-1.93.62-.28,2.01-.46,2.67-.35.35.06,1.05.22,1.4.33Z"/>
  </g>
</svg>